{
	"patcher" : 	{
		"fileversion" : 1,
		"rect" : [ 377.0, 207.0, 523.0, 408.0 ],
		"bglocked" : 0,
		"defrect" : [ 377.0, 207.0, 523.0, 408.0 ],
		"openrect" : [ 0.0, 0.0, 0.0, 0.0 ],
		"openinpresentation" : 0,
		"default_fontsize" : 11.595187,
		"default_fontface" : 0,
		"default_fontname" : "Arial",
		"gridonopen" : 0,
		"gridsize" : [ 15.0, 15.0 ],
		"gridsnaponopen" : 0,
		"toolbarvisible" : 1,
		"boxanimatetime" : 200,
		"imprint" : 0,
		"boxes" : [ 			{
				"box" : 				{
					"maxclass" : "comment",
					"text" : "Nothing fancy, just a proof of concept that it works.",
					"numoutlets" : 0,
					"fontsize" : 11.595187,
					"patching_rect" : [ 30.0, 75.0, 349.0, 20.0 ],
					"id" : "obj-18",
					"fontname" : "Arial",
					"numinlets" : 1
				}

			}
, 			{
				"box" : 				{
					"maxclass" : "number~",
					"numoutlets" : 2,
					"fontsize" : 11.595187,
					"mode" : 2,
					"outlettype" : [ "signal", "float" ],
					"patching_rect" : [ 195.0, 270.0, 56.0, 20.0 ],
					"sig" : 0.0,
					"id" : "obj-15",
					"fontname" : "Arial",
					"numinlets" : 2
				}

			}
, 			{
				"box" : 				{
					"maxclass" : "number~",
					"numoutlets" : 2,
					"fontsize" : 11.595187,
					"mode" : 1,
					"outlettype" : [ "signal", "float" ],
					"patching_rect" : [ 270.0, 180.0, 56.0, 20.0 ],
					"sig" : 0.0,
					"id" : "obj-8",
					"fontname" : "Arial",
					"numinlets" : 2
				}

			}
, 			{
				"box" : 				{
					"maxclass" : "newobj",
					"text" : "cycle~ 0.1",
					"numoutlets" : 1,
					"fontsize" : 11.595187,
					"outlettype" : [ "signal" ],
					"patching_rect" : [ 195.0, 180.0, 63.0, 20.0 ],
					"id" : "obj-5",
					"fontname" : "Arial",
					"numinlets" : 2
				}

			}
, 			{
				"box" : 				{
					"maxclass" : "ezdac~",
					"numoutlets" : 0,
					"patching_rect" : [ 390.0, 255.0, 45.0, 45.0 ],
					"id" : "obj-7",
					"numinlets" : 2
				}

			}
, 			{
				"box" : 				{
					"maxclass" : "number~",
					"numoutlets" : 2,
					"fontsize" : 11.595187,
					"mode" : 2,
					"outlettype" : [ "signal", "float" ],
					"patching_rect" : [ 270.0, 270.0, 56.0, 20.0 ],
					"sig" : 0.0,
					"id" : "obj-17",
					"fontname" : "Arial",
					"numinlets" : 2
				}

			}
, 			{
				"box" : 				{
					"maxclass" : "message",
					"text" : "test 1 2 3",
					"numoutlets" : 1,
					"fontsize" : 11.595187,
					"outlettype" : [ "" ],
					"patching_rect" : [ 375.0, 180.0, 58.0, 18.0 ],
					"id" : "obj-9",
					"fontname" : "Arial",
					"numinlets" : 2
				}

			}
, 			{
				"box" : 				{
					"maxclass" : "button",
					"numoutlets" : 1,
					"outlettype" : [ "bang" ],
					"patching_rect" : [ 345.0, 180.0, 20.0, 20.0 ],
					"id" : "obj-12",
					"numinlets" : 1
				}

			}
, 			{
				"box" : 				{
					"maxclass" : "newobj",
					"text" : "example~",
					"numoutlets" : 2,
					"fontsize" : 11.595187,
					"outlettype" : [ "signal", "signal" ],
					"patching_rect" : [ 195.0, 225.0, 94.0, 20.0 ],
					"id" : "obj-13",
					"fontname" : "Arial",
					"numinlets" : 2
				}

			}
, 			{
				"box" : 				{
					"maxclass" : "newobj",
					"text" : "print b",
					"numoutlets" : 0,
					"fontsize" : 11.595187,
					"patching_rect" : [ 75.0, 270.0, 43.0, 20.0 ],
					"id" : "obj-3",
					"fontname" : "Arial",
					"numinlets" : 1
				}

			}
, 			{
				"box" : 				{
					"maxclass" : "newobj",
					"text" : "print a",
					"numoutlets" : 0,
					"fontsize" : 11.595187,
					"patching_rect" : [ 30.0, 270.0, 43.0, 20.0 ],
					"id" : "obj-2",
					"fontname" : "Arial",
					"numinlets" : 1
				}

			}
, 			{
				"box" : 				{
					"maxclass" : "message",
					"text" : "test 1 2 3",
					"numoutlets" : 1,
					"fontsize" : 11.595187,
					"outlettype" : [ "" ],
					"patching_rect" : [ 75.0, 180.0, 58.0, 18.0 ],
					"id" : "obj-6",
					"fontname" : "Arial",
					"numinlets" : 2
				}

			}
, 			{
				"box" : 				{
					"maxclass" : "button",
					"numoutlets" : 1,
					"outlettype" : [ "bang" ],
					"patching_rect" : [ 30.0, 180.0, 20.0, 20.0 ],
					"id" : "obj-4",
					"numinlets" : 1
				}

			}
, 			{
				"box" : 				{
					"maxclass" : "newobj",
					"text" : "example",
					"numoutlets" : 2,
					"fontsize" : 11.595187,
					"outlettype" : [ "", "" ],
					"patching_rect" : [ 30.0, 225.0, 64.0, 20.0 ],
					"id" : "obj-1",
					"fontname" : "Arial",
					"numinlets" : 2
				}

			}
, 			{
				"box" : 				{
					"maxclass" : "comment",
					"varname" : "autohelp_top_title",
					"text" : "MaxMSP/C++",
					"fontface" : 3,
					"numoutlets" : 0,
					"fontsize" : 20.871338,
					"frgb" : [ 0.93, 0.93, 0.97, 1.0 ],
					"patching_rect" : [ 10.0, 8.0, 294.0, 30.0 ],
					"id" : "obj-10",
					"fontname" : "Arial",
					"textcolor" : [ 0.93, 0.93, 0.97, 1.0 ],
					"numinlets" : 1
				}

			}
, 			{
				"box" : 				{
					"maxclass" : "comment",
					"varname" : "autohelp_top_digest",
					"text" : "Using C++ to write max objects",
					"numoutlets" : 0,
					"fontsize" : 12.754705,
					"frgb" : [ 0.93, 0.93, 0.97, 1.0 ],
					"patching_rect" : [ 10.0, 36.0, 485.0, 21.0 ],
					"id" : "obj-11",
					"fontname" : "Arial",
					"textcolor" : [ 0.93, 0.93, 0.97, 1.0 ],
					"numinlets" : 1
				}

			}
, 			{
				"box" : 				{
					"maxclass" : "panel",
					"varname" : "autohelp_top_panel",
					"numoutlets" : 0,
					"grad1" : [ 0.27, 0.35, 0.47, 1.0 ],
					"mode" : 1,
					"grad2" : [ 0.85, 0.85, 0.85, 1.0 ],
					"patching_rect" : [ 5.0, 5.0, 495.0, 52.0 ],
					"id" : "obj-14",
					"background" : 1,
					"numinlets" : 1
				}

			}
 ],
		"lines" : [ 			{
				"patchline" : 				{
					"source" : [ "obj-13", 0 ],
					"destination" : [ "obj-15", 0 ],
					"hidden" : 0,
					"midpoints" : [  ]
				}

			}
, 			{
				"patchline" : 				{
					"source" : [ "obj-13", 1 ],
					"destination" : [ "obj-17", 0 ],
					"hidden" : 0,
					"midpoints" : [  ]
				}

			}
, 			{
				"patchline" : 				{
					"source" : [ "obj-12", 0 ],
					"destination" : [ "obj-13", 0 ],
					"hidden" : 0,
					"midpoints" : [ 354.5, 218.0, 204.5, 218.0 ]
				}

			}
, 			{
				"patchline" : 				{
					"source" : [ "obj-9", 0 ],
					"destination" : [ "obj-13", 1 ],
					"hidden" : 0,
					"midpoints" : [ 384.5, 224.0, 279.5, 224.0 ]
				}

			}
, 			{
				"patchline" : 				{
					"source" : [ "obj-4", 0 ],
					"destination" : [ "obj-1", 0 ],
					"hidden" : 0,
					"midpoints" : [  ]
				}

			}
, 			{
				"patchline" : 				{
					"source" : [ "obj-1", 0 ],
					"destination" : [ "obj-2", 0 ],
					"hidden" : 0,
					"midpoints" : [  ]
				}

			}
, 			{
				"patchline" : 				{
					"source" : [ "obj-1", 1 ],
					"destination" : [ "obj-3", 0 ],
					"hidden" : 0,
					"midpoints" : [  ]
				}

			}
, 			{
				"patchline" : 				{
					"source" : [ "obj-6", 0 ],
					"destination" : [ "obj-1", 1 ],
					"hidden" : 0,
					"midpoints" : [  ]
				}

			}
, 			{
				"patchline" : 				{
					"source" : [ "obj-6", 0 ],
					"destination" : [ "obj-1", 0 ],
					"hidden" : 0,
					"midpoints" : [  ]
				}

			}
, 			{
				"patchline" : 				{
					"source" : [ "obj-8", 0 ],
					"destination" : [ "obj-13", 1 ],
					"hidden" : 0,
					"midpoints" : [  ]
				}

			}
, 			{
				"patchline" : 				{
					"source" : [ "obj-5", 0 ],
					"destination" : [ "obj-13", 0 ],
					"hidden" : 0,
					"midpoints" : [  ]
				}

			}
 ]
	}

}
